<svg width="55" height="46" viewBox="0 0 55 46" fill="none" xmlns="http://www.w3.org/2000/svg">
<path d="M51 16.62H47.6988V19.028H7.14381V16.62M51 16.62H7.14381M51 16.62L27.107 2L4 16.62H7.14381M16.1035 19.028H12.331V39.152H16.1035V19.028ZM16.1035 19.028H21.448M21.448 19.028H25.2206M21.448 19.028L21.448 39.152H25.2206V19.028M25.2206 19.028H31.0366M31.0366 19.028V39.152H34.8092V19.028H31.0366ZM7.14381 41.56V39.152H46.913V41.56M7.14381 41.56H46.913M7.14381 41.56H4V45H51V41.56H46.913M39.6821 19.028V39.152H43.4547V19.028H39.6821ZM38.1102 13.352H16.1035L27.107 6.128L38.1102 13.352Z" stroke="white" stroke-width="2"/>
</svg>
